<svg width="49" height="52" viewBox="0 0 49 52" fill="none" xmlns="http://www.w3.org/2000/svg">
<path d="M28.8306 14.0447C30.2015 13.3845 31.7985 13.3845 33.1694 14.0447L42.1217 18.3559C43.4927 19.0161 44.4883 20.2647 44.8269 21.7482L47.038 31.4354C47.3766 32.9188 47.0212 34.4758 46.0725 35.6654L39.8773 43.4339C38.9286 44.6236 37.4898 45.3165 35.9682 45.3165H26.0318C24.5102 45.3165 23.0714 44.6236 22.1227 43.4339L15.9275 35.6654C14.9788 34.4758 14.6234 32.9188 14.962 31.4354L17.1731 21.7482C17.5117 20.2647 18.5073 19.0161 19.8783 18.3559L28.8306 14.0447Z" fill="#5E3D31"/>
<ellipse cx="31" cy="19" rx="14" ry="13" fill="#794F3E"/>
<circle cx="21" cy="11" r="4" fill="#794F3E"/>
<circle cx="41" cy="11" r="4" fill="#794F3E"/>
<ellipse cx="24" cy="17.5" rx="2" ry="2.5" fill="#432C23"/>
<ellipse cx="38" cy="17.5" rx="2" ry="2.5" fill="#432C23"/>
<path d="M32.0191 26.6319C31.3605 26.8698 30.6395 26.8698 29.9809 26.6319L28.9867 26.2728C28.2855 26.0196 27.7449 25.4505 27.5278 24.7373V24.7373C27.266 23.8769 27.5149 22.9425 28.17 22.3264L28.4213 22.09C28.9629 21.5807 29.6784 21.2971 30.4219 21.2971H31.5781C32.3216 21.2971 33.0371 21.5807 33.5787 22.09L33.83 22.3264C34.4851 22.9425 34.734 23.8769 34.4722 24.7373V24.7373C34.2551 25.4505 33.7145 26.0196 33.0133 26.2728L32.0191 26.6319Z" fill="#432C23"/>
<path d="M31 29L37.9282 35H24.0718L31 29Z" fill="#5E3D31"/>
</svg>
